<?xml version="1.0" encoding="UTF-8"?>
<!-- Generated by Pixelmator Pro 3.2.3 -->
<svg width="1024" height="1024" viewBox="0 0 1024 1024" xmlns="http://www.w3.org/2000/svg" xmlns:xlink="http://www.w3.org/1999/xlink">
    <path id="path1" fill="#ff5959" fill-rule="evenodd" stroke="none" d="M 984.156616 198.55011 C 984.156616 571.128784 984.156616 571.128784 980.730286 581.278809 C 978.845886 586.861206 974.032837 599.601318 970.034607 609.590088 C 966.036438 619.578857 960.660461 632.298706 958.088013 637.856506 C 955.515503 643.414307 950.701111 653.568359 947.389343 660.421021 C 944.077576 667.273682 937.634583 679.655151 933.071533 687.935425 C 928.508484 696.215698 921.346008 708.597229 917.154907 715.44989 C 912.963806 722.302551 904.634705 735.151245 898.645752 744.002625 C 892.656799 752.854004 884.078247 765.001831 879.582214 770.997925 C 875.086182 776.994019 868.976196 784.902405 866.004395 788.572144 C 863.032593 792.241943 856.41687 800.184753 851.302856 806.222961 C 846.188782 812.261108 837.13092 822.474976 831.174316 828.92041 C 825.217651 835.365845 816.526672 844.476807 811.861023 849.16687 C 807.195435 853.857056 798.498657 862.187073 792.534912 867.678101 C 786.571167 873.169067 777.61145 881.194458 772.624329 885.512268 C 767.637268 889.830078 757.330872 898.269104 749.721191 904.265686 C 742.111572 910.262268 730.773438 918.83667 724.52533 923.320007 C 718.277283 927.803284 708.17865 934.791199 702.084045 938.848694 C 695.98938 942.906189 685.710449 949.48468 679.241821 953.467468 C 672.773315 957.450317 662.341309 963.600464 656.059692 967.13446 C 649.778137 970.668457 636.929382 977.420959 627.506958 982.140076 C 618.084534 986.859192 607.805603 991.805542 604.664795 993.131958 C 601.523987 994.458374 596.507629 996.662781 593.517334 998.03064 C 590.527039 999.398499 586.444824 1001.217896 584.445801 1002.07373 C 582.446777 1002.929565 579.286743 1004.254395 577.423401 1005.017761 C 575.559998 1005.781189 572.049805 1007.170044 569.622803 1008.104187 C 567.195801 1009.03833 563.341187 1010.503479 561.056946 1011.360046 C 558.772766 1012.216675 555.151733 1013.608032 553.010315 1014.452026 C 550.868835 1015.295959 543.977234 1017.715332 537.695618 1019.828308 C 531.414063 1021.941284 524.639221 1023.807434 522.640564 1023.975281 C 520.641907 1024.143066 516.670471 1023.43866 513.815186 1022.409729 C 510.9599 1021.380859 503.54184 1018.778015 497.330566 1016.625732 C 491.119354 1014.473389 480.840363 1010.637512 474.488403 1008.10144 C 468.136414 1005.56543 457.799866 1001.305664 451.51828 998.635376 C 445.236694 995.965088 430.519043 989.005615 418.812408 983.1698 C 407.105804 977.334045 390.052002 968.259827 380.915161 963.004883 C 371.77829 957.749939 360.331207 950.888428 355.477264 947.756958 C 350.623322 944.625549 342.213226 939.05896 336.788208 935.386719 C 331.363159 931.714539 323.887573 926.562073 320.17569 923.936829 C 316.463837 921.311584 307.362976 914.444031 299.951599 908.675537 C 292.540222 902.907104 279.92511 892.65332 271.917999 885.889465 C 263.91095 879.12561 247.393494 863.707153 235.212601 851.626221 C 223.031738 839.545288 207.601242 823.353271 200.922623 815.644043 C 194.244019 807.934814 185.010696 796.954956 180.404144 791.244446 C 175.797592 785.533875 167.824554 775.254883 162.686279 768.402222 C 157.548019 761.549561 149.303848 749.948975 144.365921 742.623047 C 139.427979 735.297241 131.022964 721.981201 125.688118 713.032104 C 120.353256 704.082886 113.379311 692.088562 110.190475 686.378052 C 107.001633 680.66748 101.474327 670.154907 97.90757 663.016724 C 94.340828 655.87854 89.791824 646.300354 87.798698 641.731934 C 85.805573 637.163452 82.894653 630.622314 81.329987 627.195984 C 79.765327 623.769653 76.49144 615.826782 74.054695 609.545166 C 71.61795 603.263611 69.036224 596.722412 68.317528 595.009277 C 67.598839 593.296082 65.605537 587.689392 63.887985 582.549866 C 62.170429 577.4104 60.261974 569.276428 59.646969 564.474426 C 58.883221 558.510986 58.561596 499.92981 58.632286 379.660339 C 58.689209 282.814575 59.049057 202.458435 59.431942 201.091064 C 59.965229 199.186584 61.337772 198.279907 65.298569 197.215454 C 68.142319 196.451233 72.571548 195.553345 75.141296 195.220154 C 77.711037 194.886963 82.733727 193.944458 86.302818 193.125671 C 89.87191 192.306824 95.945854 190.913086 99.800476 190.028503 C 103.655098 189.14386 109.378624 187.754944 112.519424 186.942017 C 115.660217 186.129089 121.967789 184.559509 126.536224 183.454285 C 131.10466 182.348938 138.580292 180.40802 143.148727 179.140991 C 147.717148 177.874023 153.090271 176.471802 155.088959 176.024902 C 157.087646 175.578064 162.694366 173.99292 167.54834 172.502502 C 172.402298 171.012024 178.709854 169.095215 181.56514 168.24292 C 184.42041 167.390564 195.400223 163.874451 205.964752 160.42926 C 216.529266 156.98407 229.144379 152.739075 233.998337 150.995972 C 238.85231 149.252991 244.575836 147.171448 246.717285 146.370544 C 248.858749 145.569641 252.362946 144.244934 254.504395 143.42688 C 256.645844 142.608887 265.172729 139.272888 273.453033 136.013672 C 281.733337 132.754395 294.114838 127.730042 300.967499 124.848389 C 307.82016 121.966797 316.463837 118.261047 320.17569 116.613464 C 323.887573 114.96582 330.428711 111.965454 334.711639 109.945984 C 338.994537 107.926453 346.937378 104.186462 352.362427 101.634888 C 357.787445 99.083252 366.664734 94.736328 372.089752 91.975098 C 377.514801 89.213806 387.56015 84.045776 394.412811 80.490601 C 401.265472 76.935364 410.248535 72.004822 414.375214 69.533813 C 418.501862 67.062805 424.893158 63.413269 428.578064 61.423645 C 432.263 59.434021 438.932007 55.471924 443.398132 52.618896 C 447.864227 49.76593 454.788879 45.455688 458.786255 43.040649 C 462.78363 40.62561 469.678925 36.166382 474.109131 33.131104 C 478.539337 30.095947 485.314148 25.44696 489.164215 22.80011 C 493.014313 20.153259 498.891357 15.916077 502.224365 13.384033 C 505.557373 10.852051 511.351654 6.636414 515.100586 4.016052 C 521.200745 -0.247803 522.145691 -0.606201 524.095642 0.603149 C 525.294067 1.346436 529.778748 4.559448 534.061646 7.743225 C 538.344543 10.927063 545.82019 16.348633 550.674133 19.791199 C 555.528137 23.233765 564.171814 29.147949 569.882385 32.933838 C 575.592896 36.719666 583.535767 41.911133 587.533142 44.470459 C 591.530518 47.029785 599.006165 51.66864 604.14563 54.779053 C 609.285156 57.889526 616.527161 62.116272 620.239014 64.171875 C 623.950867 66.227478 630.608459 69.990234 635.03363 72.533569 C 639.45874 75.076843 648.102478 79.742371 654.241821 82.901306 C 660.381165 86.060242 671.010986 91.443298 677.863647 94.863586 C 684.716248 98.283875 694.761658 103.189514 700.186646 105.764832 C 705.611694 108.34021 712.620056 111.599487 715.760864 113.007751 C 718.901733 114.416016 728.246277 118.464355 736.526489 122.004089 C 744.806763 125.543823 758.122742 131.042725 766.117554 134.223877 C 774.112305 137.404907 782.989624 140.900635 785.84491 141.992065 C 788.700134 143.083557 792.796448 144.631348 794.947754 145.431641 C 797.09906 146.232056 800.836914 147.619324 803.254028 148.514465 C 805.671143 149.409668 812.554626 151.779541 818.55072 153.780823 C 824.546875 155.782104 831.088013 158.06842 833.08667 158.861572 C 835.085388 159.654663 840.692078 161.557983 845.546082 163.091125 C 850.400024 164.624268 855.773132 166.281982 857.486267 166.775024 C 859.199463 167.268005 862.937256 168.377197 865.792542 169.239807 C 868.647827 170.102417 874.488159 171.802185 878.771057 173.017029 C 883.053955 174.231934 888.894287 175.905396 891.749573 176.735779 C 894.604858 177.566284 898.576294 178.6297 900.574951 179.098999 C 902.573669 179.568298 907.946716 181.009399 912.515198 182.301453 C 917.083679 183.593506 922.690369 185.035461 924.974609 185.505798 C 927.258789 185.976135 932.054138 187.050415 935.63092 187.893127 C 939.207581 188.735901 945.515198 190.169556 949.647705 191.079163 C 953.780151 191.988647 960.431946 193.397705 964.42926 194.210327 C 968.426636 195.022949 974.50061 196.331848 977.926941 197.118958 L 984.156616 198.55011 Z M 522.640564 909.738647 C 524.639221 909.584961 531.386108 907.713257 537.633484 905.579407 C 543.88092 903.445557 554.712952 899.41333 561.704773 896.618958 C 568.696472 893.824585 579.003418 889.430115 584.60907 886.853516 C 590.214722 884.276917 599.473389 879.822449 605.183899 876.954712 C 610.89447 874.086914 617.435608 870.681763 619.719849 869.387695 C 622.004089 868.093628 626.676392 865.444946 630.102661 863.501709 C 633.528992 861.558533 637.582703 859.223328 639.110901 858.312378 C 640.639099 857.401489 645.077698 854.657959 648.974548 852.215698 C 652.871399 849.773438 659.117859 845.802002 662.855591 843.39032 C 666.593262 840.978577 675.003418 835.06012 681.544617 830.238159 C 688.085938 825.416138 698.343689 817.511841 704.339783 812.673035 C 710.335876 807.834229 721.082092 798.632751 728.220276 792.225342 C 735.358459 785.817993 746.35907 775.266846 752.666138 768.77832 C 758.973206 762.289917 769.527588 750.673584 776.1203 742.964355 C 782.713074 735.255127 792.323303 723.34082 797.476379 716.488159 C 802.629517 709.635498 809.454651 700.291016 812.643433 695.722534 C 815.832153 691.154114 822.554077 680.698303 827.580872 672.487427 C 832.607788 664.276611 838.939941 653.530396 841.652405 648.606934 C 844.364868 643.683594 849.131775 634.515869 852.245483 628.234253 C 855.359192 621.952637 860.108582 611.923462 862.799622 605.947266 C 865.490662 599.970947 868.503479 592.962524 869.49469 590.373047 C 870.485962 587.783447 873.562683 579.824402 876.331909 572.686218 C 881.36676 559.707642 881.36676 559.707642 881.644226 415.433289 C 881.911682 276.31897 881.853027 271.090271 880.003723 269.240906 C 878.948792 268.186096 874.8526 266.631409 870.900879 265.786133 C 866.949219 264.940796 860.445374 263.57605 856.447998 262.753479 C 852.450684 261.930786 846.256409 260.561157 842.683044 259.709839 C 839.109741 258.858582 833.269409 257.429443 829.704529 256.53418 C 826.139709 255.638855 821.587708 254.513489 819.58905 254.033325 C 817.590332 253.553162 812.450867 252.136475 808.167908 250.885193 C 803.88501 249.63385 798.156433 247.958679 795.437622 247.162537 C 792.718872 246.366516 788.280273 245.049561 785.573975 244.236145 C 782.867676 243.422668 776.91571 241.561218 772.347229 240.099609 C 767.778748 238.637939 760.536804 236.212097 756.253845 234.70874 C 751.970947 233.205383 744.4953 230.576721 739.641357 228.867371 C 734.787415 227.157898 727.428589 224.389343 723.288452 222.714905 C 719.148315 221.040527 712.373474 218.31665 708.233337 216.661865 C 704.093201 215.00708 696.267151 211.778564 690.842163 209.487244 C 685.417114 207.195984 677.007019 203.535583 672.153076 201.353088 C 667.299133 199.170593 653.749573 192.629395 642.042908 186.817139 C 630.336243 181.004944 616.085876 173.581116 610.375305 170.319824 C 604.664795 167.058411 597.656372 163.105896 594.801086 161.536377 C 591.945862 159.966858 584.470215 155.498413 578.188599 151.606567 C 571.907043 147.714722 562.328857 141.530273 556.90387 137.863281 C 551.478821 134.19635 543.068726 128.278381 538.214783 124.712341 C 533.36084 121.146301 527.930359 117.392456 526.147217 116.370605 C 524.148621 115.225281 521.958252 114.760742 520.436707 115.159363 C 519.079102 115.515076 513.996826 118.757507 509.142914 122.364746 C 504.28894 125.971985 495.178009 132.416199 488.896423 136.685303 C 482.614838 140.954346 471.634979 148.011475 464.496796 152.367737 C 457.358612 156.72406 445.444336 163.744873 438.02063 167.969482 C 430.596924 172.194153 414.4776 180.6427 402.199921 186.744019 C 389.922241 192.845398 372.167633 201.163696 362.745239 205.229126 C 353.322815 209.294617 339.773254 214.943909 332.635071 217.783081 C 325.496887 220.622253 317.904449 223.610107 315.763 224.422729 C 313.621552 225.235352 310.000549 226.601074 307.716309 227.457642 C 305.432098 228.31427 301.811096 229.710938 299.669647 230.561462 C 297.528168 231.412048 287.833221 234.73761 278.125305 237.95166 C 268.417358 241.16571 259.072815 244.188538 257.35968 244.668945 C 255.646515 245.149353 251.675079 246.30896 248.534286 247.245728 C 245.393478 248.182495 240.37291 249.612366 237.377457 250.423279 C 234.382004 251.234253 229.242523 252.623352 225.95636 253.510254 C 222.670212 254.397156 217.296951 255.799927 214.015762 256.627625 C 210.734589 257.455261 205.127869 258.83606 201.556396 259.695984 C 197.984909 260.555847 191.792206 261.96106 187.794815 262.818604 C 183.797424 263.676086 177.082886 265.02124 172.873611 265.807861 C 168.664322 266.59436 164.45929 267.999023 163.529083 268.92926 C 161.982635 270.475708 161.837784 282.822937 161.837784 413.087585 C 161.837784 555.554565 161.837784 555.554565 164.10202 562.303345 C 165.347366 566.015259 167.270355 571.388367 168.375351 574.243652 C 169.480347 577.098877 172.026627 583.640015 174.033752 588.779541 C 176.040894 593.919067 179.438339 602.0802 181.583618 606.915405 C 183.728928 611.75061 188.924805 622.496826 193.13002 630.795898 C 197.335251 639.09491 202.761017 649.446716 205.187302 653.799866 C 207.613602 658.153015 211.234024 664.380859 213.232712 667.639526 C 215.231415 670.898193 220.140625 678.549927 224.142105 684.643433 C 228.143555 690.736938 234.250809 699.69397 237.713776 704.547974 C 241.176712 709.401855 247.575272 717.929749 251.932816 723.498657 C 256.290344 729.067627 263.080872 737.477722 267.022858 742.187744 C 270.964905 746.897827 283.719269 760.342468 295.365936 772.064819 C 307.012604 783.78717 321.490112 797.570313 327.538177 802.694092 C 333.586243 807.817871 342.229919 814.889343 346.746399 818.408508 C 351.262848 821.927673 358.929565 827.684204 363.783508 831.200745 C 368.637451 834.717285 376.34671 840.05542 380.915161 843.063171 C 385.483582 846.070923 392.959229 850.882324 397.527649 853.755127 C 402.0961 856.62793 410.506165 861.646301 416.216705 864.907104 C 421.927277 868.167908 434.308746 874.60144 443.731171 879.203857 C 453.153595 883.806335 465.301453 889.432129 470.726501 891.705627 C 476.15152 893.979126 482.225464 896.515991 484.224152 897.34314 C 486.222839 898.170227 488.792572 899.259033 489.934692 899.762634 C 491.076813 900.266235 498.085205 902.779785 505.508911 905.348267 C 513.812317 908.22113 520.404968 909.910645 522.640564 909.738647 Z"/>
    <path id="path2" fill="#ffad5a" fill-rule="evenodd" stroke="none" d="M 521 662.928833 C 452.085571 662.962036 433.99176 662.707275 432 661.675537 C 430.26236 660.775391 429.553711 659.636353 429.676117 657.940247 C 429.772949 656.598145 431.890198 651.900024 434.381042 647.5 C 436.871918 643.099976 439.26767 639.049988 439.704956 638.5 C 440.142212 637.950012 441.535156 635.474976 442.800354 633 C 444.065552 630.525024 446.802307 625.799988 448.88208 622.5 C 450.961823 619.200012 453.902863 614.25 455.417755 611.5 C 456.932617 608.75 459.207977 604.700012 460.474091 602.5 C 461.740204 600.299988 463.70755 596.924988 464.845947 595 C 465.984344 593.075012 467.666351 590.026123 468.583771 588.224854 C 469.50119 586.423462 470.989532 583.948486 471.891174 582.724854 C 472.792847 581.50116 474.61676 578.474976 475.944336 576 C 477.271912 573.525024 479.355713 569.924988 480.575012 568 C 481.794281 566.075012 484.188721 561.936829 485.895935 558.804077 C 487.60318 555.671265 489 551.842041 489 550.294556 C 489 548.473877 488.206024 546.968506 486.75 546.028625 C 485.512512 545.229736 482.475006 543.530273 480 542.251953 C 477.524994 540.973633 474.355255 539.28894 472.956116 538.508118 C 471.557007 537.727295 467.293732 534.469299 463.482239 531.268127 C 459.670715 528.066956 453.933044 522.329285 450.731873 518.517761 C 447.530701 514.706299 444.368958 510.62677 443.70578 509.452209 C 443.042603 508.277649 441.009216 504.432922 439.187134 500.908325 C 437.365051 497.383728 435.052704 492.025024 434.048553 489 C 433.044434 485.974976 431.434235 479.966248 430.470367 475.647278 C 429.077484 469.405823 428.845215 465.302063 429.338409 455.647278 C 429.679688 448.966248 430.66214 441.142395 431.521606 438.260925 C 432.381073 435.379456 433.689362 430.879456 434.428864 428.260925 C 435.168396 425.642395 437.250092 420.799988 439.054871 417.5 C 440.85968 414.200012 443.362488 409.924988 444.616699 408 C 445.87088 406.075012 449.282715 401.736572 452.198517 398.359009 C 455.114349 394.981506 460.439667 389.765503 464.032593 386.767944 C 467.625519 383.770325 474.062927 379.442688 478.337982 377.150879 C 482.613037 374.85907 488.67337 372.139709 491.805389 371.10791 C 494.937439 370.076111 499.969513 368.617249 502.987823 367.865967 C 506.319153 367.036743 513.993286 366.5 522.517151 366.5 C 533.152344 366.5 538.370972 366.968872 544.029358 368.4328 C 548.138184 369.495789 553.692139 371.16449 556.371399 372.14093 C 559.050659 373.117371 564.410339 375.798157 568.28186 378.098145 C 572.15332 380.398132 578.301208 384.671082 581.943848 387.593567 C 585.586426 390.516052 591.026733 395.933594 594.033386 399.632507 C 597.040039 403.331421 600.952026 408.864868 602.726807 411.928955 C 604.501526 414.993042 606.688782 419.075012 607.587341 421 C 608.485962 422.924988 609.56311 425.849976 609.981079 427.5 C 610.399048 429.150024 611.247131 431.625 611.865662 433 C 612.484253 434.375 613.667542 439.49646 614.495178 444.380981 C 615.322815 449.265564 615.980408 456.465515 615.956421 460.380981 C 615.932495 464.296448 615.527893 469.299988 615.057312 471.5 C 614.586731 473.700012 613.708008 477.974976 613.104614 481 C 612.501221 484.025024 611.565918 487.518127 611.026123 488.762512 C 610.486328 490.006897 609.371826 492.600952 608.549438 494.5271 C 607.727051 496.453247 606.254517 499.709656 605.2771 501.763611 C 604.299683 503.817505 601.769226 508.129211 599.65387 511.345093 C 597.538513 514.561035 592.289368 520.710632 587.989136 525.010864 C 583.688904 529.311035 577.769714 534.357788 574.835266 536.225708 C 571.900879 538.09375 567.474976 540.697937 565 542.012939 C 562.525024 543.327881 559.091614 545.216187 557.3703 546.209106 C 554.391174 547.927551 554.296753 548.17041 555.406982 551.257202 C 556.048462 553.040771 557.359375 555.954712 558.320129 557.732666 C 559.280884 559.51062 560.638733 561.985596 561.337524 563.232666 C 562.036316 564.479675 563.70874 567.288818 565.054016 569.47522 C 566.399292 571.661621 567.950012 574.223938 568.5 575.16925 C 569.049988 576.114563 570.452087 578.600708 571.615723 580.69397 C 572.779358 582.787292 575.202332 586.974976 577 590 C 578.797668 593.025024 581.220642 597.212708 582.384277 599.30603 C 583.547913 601.399292 584.950012 603.883423 585.5 604.826355 C 586.049988 605.769226 587.833191 608.781555 589.462708 611.520386 C 591.092224 614.259155 593.137695 617.849976 594.008179 619.5 C 594.878723 621.150024 596.695496 624.301941 598.045471 626.504272 C 599.395447 628.706665 601.370239 632.081665 602.433838 634.004272 C 603.497498 635.926941 605.600525 639.525024 607.1073 642 C 608.614075 644.474976 611.036743 648.875916 612.491028 651.779785 C 613.945313 654.683716 614.986755 657.833679 614.80542 658.779785 C 614.624023 659.725891 612.906128 661.037109 610.987793 661.693604 C 608.394775 662.580933 585.308411 662.897827 521 662.928833 Z"/>
</svg>
